<svg xmlns="http://www.w3.org/2000/svg" xmlns:xlink="http://www.w3.org/1999/xlink" width="321.082" height="490.078" viewBox="0 0 301.015 459.448"><defs><linearGradient id="k" y2="76.099" xlink:href="#a" gradientUnits="userSpaceOnUse" x2="155.33" y1="85.492" x1="165.55"/><linearGradient id="a"><stop style="stop-color:#b98663" offset="0"/><stop style="stop-color:#b98663;stop-opacity:0" offset="1"/></linearGradient><linearGradient id="l" y2="32.778" xlink:href="#b" gradientUnits="userSpaceOnUse" x2="190.84" y1="67.726" x1="241.07"/><linearGradient id="b"><stop style="stop-color:#d9a66d" offset="0"/><stop style="stop-color:#d9a66d;stop-opacity:0" offset="1"/></linearGradient><linearGradient gradientTransform="matrix(5.0079 0 0 4.0423 -1194.087 317.455)" id="g" y2="77.928" xlink:href="#c" gradientUnits="userSpaceOnUse" x2="156.07" y1="74.75" x1="160"/><linearGradient id="c"><stop style="stop-color:#e2a986" offset="0"/><stop style="stop-color:#e2a986;stop-opacity:0" offset="1"/></linearGradient><linearGradient gradientTransform="matrix(.2167 0 0 .21996 388.89 586.071)" id="e" y2="48.542" xlink:href="#a" gradientUnits="userSpaceOnUse" x2="200.85" y1="60.694" x1="202.2"/><linearGradient gradientTransform="translate(-178.333 381.635) scale(2.762)" id="d" y2="118.38" gradientUnits="userSpaceOnUse" x2="196.56" y1="120.5" x1="196.61"><stop style="stop-color:#eac093" offset="0"/><stop style="stop-color:#c78066" offset="1"/></linearGradient><linearGradient gradientTransform="matrix(5.0079 0 0 4.0423 -464.763 317.455)" y2="77.928" x2="156.07" y1="74.75" x1="160" gradientUnits="userSpaceOnUse" id="f" xlink:href="#c"/><linearGradient xlink:href="#a" id="i" gradientUnits="userSpaceOnUse" x1="165.55" y1="85.492" x2="155.33" y2="76.099"/><linearGradient xlink:href="#b" id="j" gradientUnits="userSpaceOnUse" x1="241.07" y1="67.726" x2="190.84" y2="32.778"/><filter id="n" height="1.486" width="1.124" y="-.243" x="-.062"><feGaussianBlur stdDeviation="5.424"/></filter><filter id="m"><feGaussianBlur stdDeviation="3.043"/></filter><filter id="h" height="2.213" width="2.213" y="-.606" x="-.606"><feGaussianBlur stdDeviation="2.617"/></filter></defs><g transform="translate(-212.35 -425.495)"><g transform="translate(-4.793 537.665)"><circle r="7.955" cy="14.784" cx="218.319" style="fill:#ececec;stroke:#ccc" transform="translate(-233.63 -129.65) scale(2.762)"/><path style="fill:#fff" d="M369.04-109.77c-10.85 0-19.7 8.57-19.7 19.175 0 6.201 3.06 11.736 7.73 15.251-1.27-2.669-1.93-5.627-1.93-8.758 0-11.561 9.56-20.908 21.39-20.908 2.22 0 4.4.29 6.41.9-3.56-3.5-8.45-5.66-13.9-5.66z"/></g><path style="fill:#c83737;stroke:#820a0a;stroke-width:2.75999999" d="M364.583 702.685c-18.475 0-33.685 14.04-35.5 32.03l-.25 5c-.603 11.44-2.601 16.26-6.25 26.69a46.408 46.408 0 0 0-4.187 12.47c30.345 2 61.082 2.48 92.437.44a47.263 47.263 0 0 0-1.969-7.47l-3.031-6.75c-4.336-10.76-4.508-14.75-5.594-25.5.015-.42.031-.83.031-1.25 0-19.7-15.992-35.66-35.688-35.66z"/><circle r="11.344" cy="704.592" cx="364.696" style="fill:url(#d);stroke:#810000;stroke-width:2.76200008"/><ellipse ry="122.204" rx="126.644" cy="585.561" cx="365.726" style="fill:#eac093;stroke:#b98663;stroke-width:2.98997402"/><ellipse ry="9.113" rx="8.977" cy="600.714" cx="432.383" style="fill:#eac093;stroke:url(#e);stroke-width:2.76195812" transform="rotate(6.26) skewX(-.018)"/><ellipse ry="12.848" rx="9.837" cy="619.616" cx="326.664" style="fill:url(#f)"/><ellipse ry="8.778" rx="5.425" cy="622.944" cx="331.071" style="fill:#000"/><ellipse ry="1.733" rx="1.486" cy="619.232" cx="329.221" style="fill:#fff;stroke:#fff;stroke-width:2.0093534"/><ellipse ry="12.848" rx="9.837" cy="619.616" cx="-402.66" style="fill:url(#g)" transform="scale(-1 1)"/><ellipse ry="8.778" rx="5.425" cy="622.944" cx="-398.252" style="fill:#000" transform="scale(-1 1)"/><ellipse ry="1.733" rx="1.486" cy="619.482" cx="-396.353" style="fill:#fff;stroke:#fff;stroke-width:2.0093534" transform="scale(-1 1)"/><circle r="5.179" cy="89.607" cx="173.393" style="fill:#e29b86;filter:url(#h)" transform="translate(-51.213 397.745) scale(2.762)"/><circle r="5.179" cy="89.607" cx="173.393" style="fill:#e29b86;filter:url(#h)" transform="rotate(180 391.308 446.368) scale(2.762)"/><path style="fill:#000;fill-rule:evenodd;stroke:#000;stroke-width:.93357998px" d="M403.616 814.215c-7.564 19.02-13.186 38.04-16.109 57.05l10.404 11.16.332 2.05-21.163-.05c.29-3.84 2.736-8.31 3.026-14.16-2.401-15.25-6.828-25.84-10.884-37.28l34.394-18.77z"/><path style="fill:#000;stroke:#000;stroke-width:1.5" d="M318.396 778.845a47.15 47.15 0 0 0-.813 8.65c0 25.95 21.056 47 47 47s47-21.05 47-47c0-2.8-.27-5.55-.75-8.22-31.36 2.04-62.088 1.57-92.437-.43z"/><path style="fill:none;stroke:#820a0a;stroke-width:2.75999999" d="M406.961 766.495h-84.757M402.474 749.995h-75.783M400.986 735.495H329.68M396 720.995h-62.834"/><path style="fill:#ececec;stroke:#ccc;stroke-width:2.99000001" d="M365.708 463.374c-69.911 0-126.62 54.731-126.62 122.19 0 6.854.59 13.573 1.71 20.122l34.79-30.187 62.996-28 47-2 33 14s33 15 36 19 26 25 26 25l8.469 9.906a118.375 118.375 0 0 0 3.312-27.844c0-67.456-56.75-122.19-126.66-122.19z"/><path style="fill:#fd5;stroke:#dab619;stroke-width:2.75999999" d="M241.727 572.027c4.93-48.17 42.89-90.467 92.329-102.88 6.934-1.746 22.785-4.11 27.577-4.118 1.626-.002 1.75 2.02 1.75 28.498v28.5l-5.75.006c-6.86.008-25.168 3.122-34.25 5.826-25.956 7.727-49.386 21.525-74.906 44.11l-7.41 6.558.66-6.5z"/><path style="fill:#bcd35f;stroke:#879a3a;stroke-width:2.75999999" d="M484.883 573.33c-2.75-2.469-9.275-7.743-14.5-11.72-31.328-23.85-63.727-37.137-95.75-39.269l-9.25-.616v-56.974l8.75.708c12.053.976 23.227 3.212 33.043 6.613 39.555 13.705 68.76 44.53 79.543 83.955 1.72 6.293 4.14 20.867 3.555 21.42-.215.203-2.641-1.65-5.391-4.118z"/><g transform="translate(416.527 537.665)"><circle r="41.429" cy="66.571" cx="200.714" style="fill:#eac093;stroke:url(#i);stroke-width:5.87720013" transform="matrix(-.24852 -.33228 -.1271 .32945 -109.94 135.48)"/><circle r="41.429" cy="66.571" cx="200.714" style="fill:url(#j)" transform="matrix(.1093 .14302 .02316 -.18631 -190.38 78.7)"/></g><g transform="matrix(-1 0 0 1 315.963 537.665)"><circle r="41.429" cy="66.571" cx="200.714" style="fill:#eac093;stroke:url(#k);stroke-width:5.87720013" transform="matrix(-.24852 -.33228 -.1271 .32945 -109.94 135.48)"/><circle r="41.429" cy="66.571" cx="200.714" style="fill:url(#l)" transform="matrix(.1093 .14302 .02316 -.18631 -190.38 78.7)"/></g><path style="fill:#de996f;fill-rule:evenodd;filter:url(#m)" d="M366.583 586.5c5.702 10.916 18.723 1.746 27.553 4.375 1.62 10.468 15.949 17.846 24.05 7.762 7.952-4.363 14.746 5.631 19.396 11.112 5.52 7.31 15.037 8.523 23.33 6.155 8.273-.046-9.832 19.6 3.995 17.011 5.47-5.213 12.52.977 6.016 6.23-2.932 3.58-3.275 10.71 1.63 3.78 6.725-9.354 16.42-18.74 15.688-31.179-7.831-15.666-21.927-28.916-39.488-32.409a169.645 169.645 0 0 0-34.527-4.912c-11.666-1.26-21.825-7.865-33.74-7.268-21.148-2.442-44.27-6.998-63.945 3.85-11.187 5.177-18.784 15.971-30.854 19.524-13.49 6.248-29.96 5.243-41.76 15.295-10.38 4.753-7.48 20.017 2.81 22.08 3.27 5.145 7.05 14.18 14.61 12.17-5.15-3.117-6.66-10.797 1.03-6.607 10.78-.654 3.04-13.947 6.41-16.987 6.93-1.4 14.26-4.107 16.67-10.33 9.81.646 23.22 3.572 24.42-9.678 8.886-8.45 22.832 1.686 31.904-6.566 6.562-6.863 16.54-6.224 24.802-3.409z"/><path style="fill:#000;fill-rule:evenodd;stroke:#000;stroke-width:1px" d="M366.583 578.5c5.702 10.916 18.723 1.746 27.553 4.375 1.62 10.468 15.949 17.846 24.05 7.762 7.952-4.363 14.746 5.631 19.396 11.112 5.52 7.31 15.037 8.523 23.33 6.155 8.273-.046-9.832 19.6 3.995 17.011 5.47-5.213 12.52.977 6.016 6.235-2.932 3.573-3.275 10.705 1.63 3.775 6.725-9.354 16.42-18.74 15.688-31.179-7.831-15.666-21.927-28.916-39.488-32.409a169.645 169.645 0 0 0-34.527-4.912c-11.666-1.26-21.825-7.865-33.74-7.268-21.148-2.442-44.27-6.998-63.945 3.85-11.187 5.177-18.784 15.971-30.854 19.524-13.49 6.248-29.96 5.243-41.76 15.295-10.38 4.753-7.48 20.017 2.81 22.08 3.27 5.145 7.05 14.18 14.61 12.166-5.15-3.113-6.66-10.793 1.03-6.603 10.78-.654 3.04-13.947 6.41-16.987 6.93-1.4 14.26-4.107 16.67-10.33 9.81.646 23.22 3.572 24.42-9.678 8.886-8.45 22.832 1.686 31.904-6.566 6.562-6.863 16.54-6.224 24.802-3.409z"/><path style="fill:none;stroke:#4b4b4b;stroke-width:2.75999999" d="M366.583 578.5c5.702 10.916 18.723 1.746 27.553 4.375 1.62 10.468 15.949 17.846 24.05 7.762 7.952-4.363 14.746 5.631 19.396 11.112 5.52 7.31 15.037 8.523 23.33 6.155 8.273-.046-9.832 19.6 3.995 17.011 5.47-5.213 12.52.977 6.016 6.235-2.932 3.573-3.275 10.705 1.63 3.775 6.725-9.354 16.42-18.74 15.688-31.179-7.831-15.666-21.927-28.916-39.488-32.409a169.645 169.645 0 0 0-34.527-4.912c-11.666-1.26-21.825-7.865-33.74-7.268-21.148-2.442-44.27-6.998-63.945 3.85-11.187 5.177-18.784 15.971-30.854 19.524-13.49 6.248-29.96 5.243-41.76 15.295-10.38 4.753-7.48 20.017 2.81 22.08 3.27 5.145 7.05 14.18 14.61 12.166-5.15-3.113-6.66-10.793 1.03-6.603 10.78-.654 3.04-13.947 6.41-16.987 6.93-1.4 14.26-4.107 16.67-10.33 9.81.646 23.22 3.572 24.42-9.678 8.886-8.45 22.832 1.686 31.904-6.566 6.562-6.863 16.54-6.224 24.802-3.409z"/><path style="fill:#ececec;fill-rule:evenodd;stroke:#ccc;stroke-width:2.7802" d="m497.119 624.494 5.507-4.689 1.447-28.68-5.944-8.817c-85.44-76.407-179.91-77.712-262.59 0l-5.94 11.756.68 22.241 5.08 8.684c83.322-75.458 176.32-74.179 261.76-.495z"/><path style="fill:#000;fill-rule:evenodd;stroke:#000;stroke-width:.93357998px" d="M325.222 814.215c7.563 19.02 13.186 38.04 16.109 57.05l-10.404 11.16-.332 2.05 21.163-.05c-.29-3.84-2.736-8.31-3.026-14.16 2.4-15.25 6.828-25.84 10.884-37.28l-34.394-18.77z"/><path style="fill:#e0a075;filter:url(#n)" d="M47.344 248.69c22.794 32.33 61.226 53.59 104.78 53.59 43.56 0 82.02-21.26 104.82-53.59-25.59 25.44-63.08 41.5-104.82 41.5-41.73 0-79.193-16.06-104.78-41.5z" transform="matrix(1 0 0 .92536 213.587 424.055)"/><path d="m12.607 193.164 31.449 18.166 3.5.5 2 3.5 11.366 14.454-6.373 6.049-3.493-9.003 2.5 5-5 1.5-4.5-6-2-6s-19.82-19.054-40.82-17.554z" style="fill:#eac093;fill-rule:evenodd;stroke:#b98663;stroke-width:2.75999999" transform="scale(-1 1) rotate(47.997 -776.706 105.54)"/><path transform="scale(-1 1) rotate(47.997 -532.797 -42.819)" d="m183.88 327.41 3.12 9.09c21-1.5 46 17 46 17l2 6 4.5 6 1.97-.59-3.88-4.22-3.9-10.94c-16.86-15.2-40.33-20.68-49.81-22.34zm58.31 29.06 1 3.97 3.552 4.842 1.216-.724-.118-2.438Zm1.47 5.81.43 1.84.41-.12z" style="fill:#df9f75;fill-rule:evenodd"/><path transform="scale(-1 1) rotate(47.997 -532.797 -42.819)" d="M187.406 336.85c4.04-.29 7.814-.2 11.934.71l5.16-12.37-18.78-4.84-18.224-.787" style="fill:#c83737;fill-rule:evenodd;stroke:#820a0a;stroke-width:2.75999999"/><path style="fill:#d35f5f;fill-rule:evenodd;stroke:#e08662;stroke-width:1px" d="m412.654 659.485-94.152-.505c.662.08 44.848 54.35 94.152.505z"/><g><path transform="scale(1 -1) rotate(8.809 7119.466 1136.997)" d="m190.248 327.688-1.483 8.539c21-1.5 44.235 17.273 44.235 17.273l2 6 4.5 6 1.97-.59-3.88-4.22-3.9-10.94c-16.86-15.2-33.962-20.402-43.442-22.062zm51.942 28.782 1 3.97L254 373.5l2.69-1.56-8.85-9.82zm1.47 5.81.43 1.84.41-.12z" style="fill:#df9f75;fill-rule:evenodd"/><path style="fill:#eac093;fill-rule:evenodd;stroke:#b98663;stroke-width:2.75999999" d="m12.607 193.164 31.449 18.166c2.173.955 8.96 4.888 8.96 4.888l21.38 10.004-11.34 15.108-12-14.5 2.5 5-5 1.5-4.5-6-2-6s-19.82-19.054-40.82-17.554z" transform="scale(1 -1) rotate(8.809 6166.07 2310.32)"/><path style="fill:#c83737;fill-rule:evenodd;stroke:#820a0a;stroke-width:2.75999999" d="M187.406 336.85c4.04-.29 7.814-.2 11.934.71l5.16-12.37-14.76-4.56" transform="scale(1 -1) rotate(8.809 7119.466 1136.997)"/><path style="fill:#df9f75;fill-opacity:1" transform="rotate(37.422 -1140.547 1088.25)" d="M-126.05-211.783h2.857v16.786h-2.857z"/><path style="fill:#df9f75;fill-opacity:1" transform="matrix(.70126 .7129 -.81563 .57858 426.563 917.07)" d="M-175.864-194.488h2.774v14.104h-2.774z"/><path style="fill:#df9f75;fill-opacity:1" transform="matrix(.7903 .61272 -.73092 .68246 426.563 917.07)" d="M-156.451-212.971h2.774v14.104h-2.774z"/></g></g></svg>